<svg id="Layer_1" data-name="Layer 1" xmlns="http://www.w3.org/2000/svg" viewBox="0 0 82 82"><defs><style>.cls-1{fill:#fdd0c3;}.cls-1,.cls-2{stroke:#000;stroke-miterlimit:10;}.cls-2{fill:#231f20;}</style></defs><rect class="cls-1" width="82" height="82"/><path class="cls-2" d="M41,28.62q.28,2.07-2.44,3.55c-2.12,1.18-3.3,2.28-3.55,3.32Q32.19,43.05,26,58a5.77,5.77,0,0,1-3,5.17A2.77,2.77,0,0,1,20.9,62c-.45-.74-.92-1.45-1.41-2.14q-2.13-6.36-9.68-25.65c-.34-1-1.48-1.74-3.4-2.29-1.72-.54-2.58-1.28-2.58-2.21a4.73,4.73,0,0,1,.14-1,49.85,49.85,0,0,1,6.8-.29,23.06,23.06,0,0,0,6.73-.67c1.92.49,2.83,1.16,2.73,2-.05.64-.73,1.21-2,1.73s-2,1.15-2,1.89a2.71,2.71,0,0,0,.22.88,67.34,67.34,0,0,1,3.48,8.65,24.91,24.91,0,0,0,4.5,8.2h1.33q3-6.27,3.77-8.13a60.25,60.25,0,0,0,3-8.42,3.77,3.77,0,0,0-2.81-3.1,2.47,2.47,0,0,1-2.58-1,1.92,1.92,0,0,1-.15-.66,1.25,1.25,0,0,1,.74-1.15,12.36,12.36,0,0,0,1.4-.85q.07.07,6,0A14.16,14.16,0,0,1,41,28.62Z"/><path class="cls-2" d="M78.21,33.44a15.32,15.32,0,0,0-1.71.88,4.5,4.5,0,0,1-2.06.74h-.88a36.68,36.68,0,0,0-6.08,4,23,23,0,0,1-6.3,3.63,2.2,2.2,0,0,0-.35,1.19A4.21,4.21,0,0,0,62,46.32c.61.74,1.21,1.51,1.82,2.3A23.34,23.34,0,0,1,68,53a31.14,31.14,0,0,0,4.2,4.68,9.45,9.45,0,0,0,5.6,2.44.88.88,0,0,1,.55.92,1.74,1.74,0,0,1-.28,1,19.41,19.41,0,0,1-5.82.77c-1,0-2.39-.06-4.22-.17s-3.13-.18-3.93-.18c-.65-.61-.91-1.1-.77-1.47a10.81,10.81,0,0,0,1.23-1.21,2.13,2.13,0,0,0,.71-1.33,1.18,1.18,0,0,0-.57-.91,33.43,33.43,0,0,1-4.21-5.34c-1.68-2.39-3.44-3.81-5.26-4.28a4.37,4.37,0,0,0-3.16,4.49,25.66,25.66,0,0,0,.35,3.16,16.82,16.82,0,0,1,.21,3c0,.89.79,1.46,2.25,1.72s2.17.53,2.17.81-.37.79-1.12,1.4c-.94,0-2.35.11-4.25.32a41.62,41.62,0,0,1-4.32.31,12.54,12.54,0,0,1-4.21-.63c-.84-.61-1-1.19-.49-1.76a3.12,3.12,0,0,1,1.79-1,3.12,3.12,0,0,0,1.86-1.16,34.61,34.61,0,0,0,.21-5.76A20.8,20.8,0,0,1,47.11,47q-.28-8.4-.78-24.92c-.71-1.12-1.11-1.75-1.21-1.89a3.15,3.15,0,0,0-1.7-1.2A2.61,2.61,0,0,1,41,17.72a7.15,7.15,0,0,1,3.87-3.79l5-2.39a3.32,3.32,0,0,1,1.69-.63c.88,0,1.33.93,1.33,2.81a15.84,15.84,0,0,1-.07,1.75A209.76,209.76,0,0,0,52,46.57a1.78,1.78,0,0,0,1,.28c.51,0,1.15-.44,1.92-1.33a3.46,3.46,0,0,1,1.92-1.41q5-2,9.43-8.35a2.35,2.35,0,0,0-1.48-1c-.56-.19-1.14-.38-1.75-.56C63.21,32.7,64,32,65.27,32c.41,0,.82.05,1.22.1a11.4,11.4,0,0,0,1.3.11,2.82,2.82,0,0,0,1.48-.35l8.29-.28C78.17,31.74,78.4,32.37,78.21,33.44Z"/></svg>