<svg id="Layer_1" data-name="Layer 1" xmlns="http://www.w3.org/2000/svg" width="350" height="130" viewBox="0 0 350 130"><defs><style>.cls-1{fill:#050606;stroke:#231f20;stroke-miterlimit:10;}</style></defs><path class="cls-1" d="M50.21,6.17c.23,1.61-.72,3-2.86,4.15q-3.72,2.09-4.15,3.9-3.3,8.83-10.48,26.33c-.17,2.88-1.36,4.9-3.55,6.06a3.23,3.23,0,0,1-2.51-1.39c-.52-.86-1.07-1.7-1.65-2.51q-2.51-7.44-11.34-30c-.41-1.15-1.73-2.05-4-2.68-2-.64-3-1.5-3-2.6a4.86,4.86,0,0,1,.18-1.21,61,61,0,0,1,8-.35A26.5,26.5,0,0,0,22.67,5c2.26.58,3.32,1.36,3.21,2.34-.06.75-.85,1.43-2.38,2s-2.3,1.35-2.3,2.21a2.77,2.77,0,0,0,.26,1,77.53,77.53,0,0,1,4.07,10.13,29,29,0,0,0,5.28,9.62h1.56q3.47-7.36,4.42-9.53A71.85,71.85,0,0,0,40.34,13a4.48,4.48,0,0,0-3.29-3.64,2.85,2.85,0,0,1-3-1.21,2.07,2.07,0,0,1-.18-.78A1.47,1.47,0,0,1,34.71,6c.58-.32,1.13-.65,1.65-1q.07.09,7,0A16.62,16.62,0,0,1,50.21,6.17Z"/><path class="cls-1" d="M92.68,19.63a26.62,26.62,0,0,1-.46,12.17A19.38,19.38,0,0,1,85.71,42a9.27,9.27,0,0,1-4.25,3.3l-5.09,1.73a19.41,19.41,0,0,1-12.88-1.7A25,25,0,0,1,53.32,37a18.85,18.85,0,0,1-1.78-3.8q-2-6-.83-14.57Q55.33,7.18,64.53,4.05a19.09,19.09,0,0,1,5.15-1A15.67,15.67,0,0,1,75,3.24q2.67.66,5.24,1.35C82.11,6,84,7.52,85.87,9A13.06,13.06,0,0,1,90,14.49a10.12,10.12,0,0,1,.51,2.66c0,.31.39.72,1,1.21A3.17,3.17,0,0,1,92.68,19.63ZM85,25.84a26.75,26.75,0,0,0-1.23-5.35A25.62,25.62,0,0,0,76.91,9.43q-4.5-4-11.24-1.75a14.28,14.28,0,0,0-4.62,2.54Q55.53,17,59.24,27.93a69.57,69.57,0,0,0,5.47,11.54q3.23,4.58,10.5,4.16a2.73,2.73,0,0,0,1.23-.13,5.75,5.75,0,0,0,1.17-.59,6.68,6.68,0,0,1,1.17-.59,2,2,0,0,1,1.61.14q4.23-2.8,5.57-9.22Z"/><path class="cls-1" d="M131.47,10.74a6.29,6.29,0,0,1-5.74,3,14.6,14.6,0,0,1-1.57-.09,16.63,16.63,0,0,0-6.76-1.48,10.23,10.23,0,0,0-4,.74c-1.91,1.85-2.87,4.54-2.87,8.05,0,1,.12,2.72.37,5.19a39,39,0,0,1,.19,5,11,11,0,0,1,.09,1.48c0,.56,0,1.45-.14,2.69s-.14,2.16-.14,2.77c0,2.54.84,4.2,2.5,5-.43-.06.46-.12,2.69-.18A2.15,2.15,0,0,1,118.23,44q.55,3-3.51,3.05a27,27,0,0,0-5.28-.46c-.93,0-2.24.08-3.93.23s-3,.23-3.84.23a24,24,0,0,1-3.06-.18,1.51,1.51,0,0,1-1.29-1.12,2.63,2.63,0,0,1,.18-1.95c1.17-.43,2.38-.9,3.61-1.39a2.6,2.6,0,0,0,1.58-3.07,24,24,0,0,1-.28-3.81c0-1.3.1-3.27.32-5.9s.33-4.57.33-5.81a21.7,21.7,0,0,0-2.13-9.95c-1.55-1.05-2.38-1.61-2.5-1.67a3.25,3.25,0,0,1-1.3-2.51,6.41,6.41,0,0,1,.09-1,12.91,12.91,0,0,1,4.84-3.35,24.16,24.16,0,0,0,5.48-2.78,1.35,1.35,0,0,1,.64-.19c1.34,0,2.13.9,2.37,2.68V8.34c0,1.29.47,2,1.4,2a18.41,18.41,0,0,1,14.78-7.22c.74,0,1.48,0,2.23.1a6.22,6.22,0,0,1,3.16,5.27A4.08,4.08,0,0,1,131.47,10.74Z"/><path class="cls-1" d="M171.36,40.08q-4.81,7.77-15.83,7.77a28.92,28.92,0,0,1-4-.27,22.85,22.85,0,0,1-11.66-7.87,22.56,22.56,0,0,1-5.28-13,24,24,0,0,1,2-11.29,18.26,18.26,0,0,1,8-8.7Q148.4,2.5,155.07,2.5a16,16,0,0,1,7.82,2A11.5,11.5,0,0,1,168,9.82q1.11,2.31,2.22,4.53a11.34,11.34,0,0,1,1.29,4.81,9.59,9.59,0,0,1-.18,1.85l-2.14.93-12.53-.46q-7.44-.29-12.17-.09a4.66,4.66,0,0,0-1.39,3.6,27.63,27.63,0,0,0,.37,3.43,14.23,14.23,0,0,1,.28,3.33q5.1,10.74,11.89,11a21.83,21.83,0,0,0,2.87.19,13.69,13.69,0,0,0,11.05-5,1.6,1.6,0,0,1,1.35.28,1.29,1.29,0,0,1,.7,1A1.36,1.36,0,0,1,171.36,40.08Zm-8.7-25.64a9,9,0,0,1-.93-3,3.72,3.72,0,0,0-1.57-2.59,13.38,13.38,0,0,0-6.66-2,7.29,7.29,0,0,0-3.34.75q-1.66,1.56-3.33,3.23a5.86,5.86,0,0,0-2,4.08,6.3,6.3,0,0,0,.18,1.48,10.08,10.08,0,0,0,5.37,1.76h5.55Q161.73,18.15,162.66,14.44Z"/><path class="cls-1" d="M207.27,34.06a7.58,7.58,0,0,1,.18,1.58,9.48,9.48,0,0,1-1.2,4.35c-.06.12-.87,1.42-2.41,3.89A18.54,18.54,0,0,1,192,47.67a30.87,30.87,0,0,1-8-1.11,4.83,4.83,0,0,0-1.44.74,3.16,3.16,0,0,1-1.53.65A1.53,1.53,0,0,1,180,47.3a20.58,20.58,0,0,1-2.13-8.24,7.22,7.22,0,0,1,.84-3.61A3.41,3.41,0,0,1,181.35,37a5.89,5.89,0,0,0,2.5,2.22,13.75,13.75,0,0,0,10.37,5.55c1.29-.24,2.64-.55,4-.92a5.05,5.05,0,0,0,3.2-2.64q1.11-2.09.27-7.18-2.6-2.87-8.79-4.81-7.59-2.31-9.44-3.42-4.44-2.77-4.63-8.7-.36-9.54,6.3-12.87a12.49,12.49,0,0,1,5.46-1.11,9.58,9.58,0,0,1,5.55,1.48l5.55-.55c.87.37,1.39,1.29,1.58,2.77.18,1.73.61,2.87,1.29,3.43a2.1,2.1,0,0,0-.18.92,5,5,0,0,0,.23,1.3,5.48,5.48,0,0,1,.23,1.2,1.76,1.76,0,0,1-.65,1.39l-6.29-5.37q-3.61-3-6.94-3a10.74,10.74,0,0,0-2.69.37q-2.4,0-4.44,4.07a4.08,4.08,0,0,0-.55,2q0,2.68,4,5.37,9.07,2.58,12.59,4.72Q206.63,27.31,207.27,34.06Z"/><path class="cls-1" d="M90.78,89.78a14.58,14.58,0,0,0-2,1,5.27,5.27,0,0,1-2.41.86h-1a43.51,43.51,0,0,0-7.13,4.75,26.77,26.77,0,0,1-7.37,4.25,2.61,2.61,0,0,0-.41,1.39,4.91,4.91,0,0,0,1.31,2.87q1.07,1.3,2.13,2.7a27.13,27.13,0,0,1,4.92,5.07,36.72,36.72,0,0,0,4.92,5.48A11,11,0,0,0,90.29,121a1,1,0,0,1,.66,1.07,2.07,2.07,0,0,1-.33,1.15,22.69,22.69,0,0,1-6.83.91c-1.15,0-2.8-.07-4.94-.21s-3.67-.2-4.6-.2c-.77-.71-1.07-1.29-.91-1.73a13,13,0,0,0,1.4-1.4,2.52,2.52,0,0,0,.82-1.56A1.37,1.37,0,0,0,74.9,118,39.7,39.7,0,0,1,70,111.75c-2-2.8-4-4.47-6.17-5A5.13,5.13,0,0,0,60.09,112a29.51,29.51,0,0,0,.42,3.71,17.62,17.62,0,0,1,.24,3.45c.06,1,.94,1.72,2.64,2s2.55.62,2.55.94-.44.94-1.32,1.65a48.56,48.56,0,0,0-5,.37,48.83,48.83,0,0,1-5.06.37,15.12,15.12,0,0,1-4.93-.74c-1-.71-1.18-1.4-.58-2.06a3.66,3.66,0,0,1,2.1-1.19,3.6,3.6,0,0,0,2.18-1.36,41.4,41.4,0,0,0,.25-6.74,24.22,24.22,0,0,1,.74-6.75q-.35-9.87-.92-29.21L52,74.23a3.72,3.72,0,0,0-2-1.4c-.95.17-1.89-.33-2.83-1.48a8.35,8.35,0,0,1,4.52-4.44l5.93-2.8a3.84,3.84,0,0,1,2-.74c1,0,1.56,1.1,1.56,3.29,0,.61,0,1.29-.07,2.06a247.24,247.24,0,0,0-1,36.45,2.3,2.3,0,0,0,1.15.32q.9,0,2.25-1.56c.9-1,1.65-1.59,2.25-1.64Q71.64,100,76.8,92.5a2.73,2.73,0,0,0-1.73-1.24L73,90.6c.22-1.69,1.1-2.55,2.63-2.55.28,0,.76,0,1.44.13a14.74,14.74,0,0,0,1.53.12,3.24,3.24,0,0,0,1.72-.41L90,87.56C90.73,87.78,91,88.52,90.78,89.78Z"/><path class="cls-1" d="M131.09,116.6a2.78,2.78,0,0,1,.33,1.24,5.07,5.07,0,0,1-1.4,2.88,17.81,17.81,0,0,0-2,2.71,14.31,14.31,0,0,1-6.5.9,9.55,9.55,0,0,1-2.47-2.63c-.88-1.2-1.7-1.81-2.47-1.81a3,3,0,0,0-1.56.49,15.63,15.63,0,0,1-10.78,4,13.42,13.42,0,0,1-6.66-1.64q-4.2-2.3-4.2-8A15,15,0,0,1,93.5,113Q97,106.44,105.26,105l6.17-1.39a23.63,23.63,0,0,0,5.84-2c0-2.35-.14-4.68-.25-7A7.6,7.6,0,0,0,114.15,89c-1.6-.82-3.62-.88-6.09-.16-1.32,1.64-2.63,3.26-4,4.85q-2.48,2.88-5,2.88a6.61,6.61,0,0,1-1-.08,9.4,9.4,0,0,1-3.37-2.55,4.21,4.21,0,0,1-.16-1.16A5.78,5.78,0,0,1,97,88.14c.5-.33,2.11-1.26,4.86-2.8a81.67,81.67,0,0,1,10-1,25,25,0,0,1,4.12.33l4.28,1.89c2.3,2.75,3.45,6.39,3.45,11q0,2.22-.45,6.86t-.45,6.87a25.67,25.67,0,0,0,.49,5.35q2.72,2.72,3.62,2.72a2.57,2.57,0,0,0,1.4-.5Zm-14.15-9.71-.74-1.07q-8,1-11.93,4.09a11,11,0,0,0-1.89,7.37,7.75,7.75,0,0,0,2.55,2.37,8.3,8.3,0,0,0,2.8.49q4.44,0,8.8-5.07Z"/><path class="cls-1" d="M162.27,66.5a5.47,5.47,0,0,1-1.35,4.32,5.08,5.08,0,0,1-4,1.85,13.49,13.49,0,0,1-3.58-.7,14.39,14.39,0,0,0-3.17-.7c-1.54,0-2.5,1-2.88,3a39.88,39.88,0,0,0,.58,6.49c.33,1.92.62,3.87.9,5.85A2.59,2.59,0,0,0,150.51,88c.76.2,1.51.37,2.22.54.88-.71,2.52-.8,4.94-.25.65.48.79,1.31.41,2.49a3.18,3.18,0,0,1-2.31.88,11.24,11.24,0,0,1-1.85-.2,11.17,11.17,0,0,0-1.68-.21,2.52,2.52,0,0,0-2.56,1.9l-.32,24.26a2.58,2.58,0,0,0,.9,1.61,15.07,15.07,0,0,0,1.56,1.31,3.16,3.16,0,0,0,1.9.54c.21,0,.57,0,1.07-.08h1a2.42,2.42,0,0,1,2.64,1.89,5.09,5.09,0,0,1-3,1.15c-2.25.28-3.4.41-3.45.41a34.69,34.69,0,0,0-5.76-.24h-5.76a24.58,24.58,0,0,1-4.53-.64,1.27,1.27,0,0,1-.16-.56c0-.54.66-1.07,2-1.6h1.24a4.15,4.15,0,0,0,3.78-2q.09-3.61-.08-9.52-.17-7.55-.16-9.84,0-3.85.24-7.06a2.91,2.91,0,0,0-2.8-1.56,12,12,0,0,0-1.8.21,11.79,11.79,0,0,1-1.73.2c-1.43,0-2.22-.82-2.39-2.46a4.5,4.5,0,0,1,3.13-.91h2c1.81,0,3-.55,3.62-1.64q0-3.87.09-7.74a21.37,21.37,0,0,1,1.31-7.32,11.32,11.32,0,0,1,4.69-5.76,14.65,14.65,0,0,1,7.82-2.63A5.92,5.92,0,0,1,162.27,66.5Z"/><path class="cls-1" d="M192.55,69.93a5.53,5.53,0,0,1-1.36,4.32,5.08,5.08,0,0,1-4,1.85,7.83,7.83,0,0,1-1.51-.18c-6-4.68-9.41-4.68-7.86,6,0,.37.09.75.14,1.13l.18,1.16q.49,2.88.91,5.84a2.58,2.58,0,0,0,1.72,1.36L183,92q1.32-1.08,4.94-.25c.66.48.8,1.31.41,2.49a3.14,3.14,0,0,1-2.3.88,12.35,12.35,0,0,1-1.85-.2,11.41,11.41,0,0,0-1.69-.21A2.52,2.52,0,0,0,180,96.58l-.33,24.27a2.65,2.65,0,0,0,.91,1.61,14.09,14.09,0,0,0,1.56,1.31,3.11,3.11,0,0,0,1.89.54c.22,0,.58,0,1.07-.08h1a2.42,2.42,0,0,1,2.63,1.89,5.12,5.12,0,0,1-3,1.15l-3.46.41a35.59,35.59,0,0,0-5.76-.25h-5.76a22.76,22.76,0,0,1-4.52-.64,1.26,1.26,0,0,1-.17-.56q0-.8,2-1.59h1.23a4.17,4.17,0,0,0,3.79-2c.05-2.41,0-5.58-.09-9.52q-.16-7.55-.16-9.84,0-3.87.25-7.06a2.91,2.91,0,0,0-2.8-1.56,12.11,12.11,0,0,0-1.81.21,13.24,13.24,0,0,1-1.73.2c-1.42,0-2.22-.82-2.38-2.47a4.54,4.54,0,0,1,3.12-.9h2c1.81,0,3-.55,3.62-1.65q0-3.85.08-7.73c0-.5,0-1,.08-1.46s.08-.93.14-1.36c-3.85-8.29,3-8.29,5.79-10.26.34-.22.68-.43,1-.62a13.82,13.82,0,0,1,6.79-2A5.92,5.92,0,0,1,192.55,69.93Z"/><path class="cls-1" d="M223.15,118.25q-4.28,6.9-14.07,6.91a24.15,24.15,0,0,1-3.53-.25,20.28,20.28,0,0,1-10.37-7,20,20,0,0,1-4.69-11.52,21.2,21.2,0,0,1,1.81-10,16.23,16.23,0,0,1,7.08-7.73q3.38-3.78,9.29-3.78a14.29,14.29,0,0,1,7,1.72,10.27,10.27,0,0,1,4.57,4.77c.66,1.38,1.32,2.72,2,4a10,10,0,0,1,1.16,4.27,8.4,8.4,0,0,1-.17,1.65l-1.9.82c-.11,0-3.82-.13-11.14-.41-4.4-.16-8-.19-10.81-.08a4.16,4.16,0,0,0-1.24,3.21,24.94,24.94,0,0,0,.33,3,13,13,0,0,1,.25,3q4.53,9.55,10.56,9.79a20.63,20.63,0,0,0,2.56.17,12.14,12.14,0,0,0,9.82-4.45,1.46,1.46,0,0,1,1.2.25,1.15,1.15,0,0,1,.62.91A1.18,1.18,0,0,1,223.15,118.25Zm-7.73-22.79a7.83,7.83,0,0,1-.82-2.63,3.32,3.32,0,0,0-1.4-2.31,12,12,0,0,0-5.93-1.81,6.54,6.54,0,0,0-3,.66c-1,.93-2,1.89-3,2.88a5.2,5.2,0,0,0-1.81,3.62,5,5,0,0,0,.17,1.32,9,9,0,0,0,4.77,1.56h4.93Q214.6,98.75,215.42,95.46Z"/><path class="cls-1" d="M264.37,106.89a22.49,22.49,0,0,1-4.53,10.53,16.5,16.5,0,0,1-9.29,6.34,18.81,18.81,0,0,1-4.53.57q-5.84,0-9.13-3.61a3.12,3.12,0,0,0-1-.17,4,4,0,0,0-2.55,1.61c-1,1.06-1.92,1.49-2.79,1.27a8.37,8.37,0,0,0-.7-1.89,5.36,5.36,0,0,1-.62-2,2.33,2.33,0,0,1,.66-1.56c.16-2.41.25-5.54.25-9.38,0-5.26,0-8.42.08-9.46a2.22,2.22,0,0,0,.41-1.32,9.88,9.88,0,0,0-.21-1.68,10.71,10.71,0,0,1-.2-1.69,3.64,3.64,0,0,1,.41-1.81l-.41-1.48.41-17.44q-.58-1-3.42-2.31c-1.62-.71-2.42-1.53-2.42-2.46a4,4,0,0,1,.49-1.73q1.49-.33,5.43-3.29,3.71-2.72,5.43-2.72c1.54,0,2.74,1.1,3.62,3.3a38.07,38.07,0,0,1-1.32,6A26.38,26.38,0,0,0,237.3,77a10.07,10.07,0,0,0,.25,2.22,29.77,29.77,0,0,0-.25,3.13c0,2,.63,3.29,1.89,3.94a19.17,19.17,0,0,1,8.86-2,15.38,15.38,0,0,1,8.69,2.38Q264.38,93.16,264.37,106.89Zm-9.86-13.82A7.78,7.78,0,0,0,249,88.8a26.26,26.26,0,0,0-7.13-.33,3.56,3.56,0,0,0-3.52,2.46c-.33,1.48-.68,3-1.07,4.53a17.28,17.28,0,0,1,.25,3.21,53.22,53.22,0,0,1-.66,6.66,53.26,53.26,0,0,0-.66,6.75q0,7.65,7.16,8.64a6.94,6.94,0,0,0,2.3.41c2,0,4.39-1,7.24-3.13a28.6,28.6,0,0,0,3.87-14.31A24.87,24.87,0,0,0,254.51,93.07Z"/><path class="cls-1" d="M307.07,116.6a2.78,2.78,0,0,1,.33,1.24,5.13,5.13,0,0,1-1.4,2.88,19,19,0,0,0-2,2.71,14.29,14.29,0,0,1-6.5.9,9.41,9.41,0,0,1-2.46-2.63c-.88-1.2-1.71-1.81-2.47-1.81a3,3,0,0,0-1.57.49,15.6,15.6,0,0,1-10.77,4,13.48,13.48,0,0,1-6.67-1.64q-4.18-2.3-4.19-8a15,15,0,0,1,.08-1.64q3.54-6.57,11.76-8.05l6.17-1.39a23.73,23.73,0,0,0,5.85-2q-.09-3.52-.25-7A7.64,7.64,0,0,0,290.12,89c-1.59-.82-3.62-.88-6.09-.16-1.32,1.64-2.63,3.26-3.95,4.85-1.64,1.92-3.32,2.88-5,2.88a6.48,6.48,0,0,1-1-.08,9.34,9.34,0,0,1-3.38-2.55,4.21,4.21,0,0,1-.16-1.16,5.76,5.76,0,0,1,2.47-4.6q.74-.49,4.85-2.8a81.79,81.79,0,0,1,10-1,24.88,24.88,0,0,1,4.11.33l4.28,1.89c2.3,2.75,3.46,6.39,3.46,11,0,1.48-.16,3.77-.46,6.86s-.45,5.39-.45,6.87a25.67,25.67,0,0,0,.49,5.35q2.71,2.72,3.62,2.72a2.55,2.55,0,0,0,1.4-.5Zm-14.15-9.71-.74-1.07q-8,1-11.93,4.09a11,11,0,0,0-1.9,7.37,7.69,7.69,0,0,0,2.56,2.37,8.29,8.29,0,0,0,2.79.49q4.44,0,8.8-5.07Z"/><path class="cls-1" d="M342.77,88.74a5.58,5.58,0,0,1-5.1,2.63,11.49,11.49,0,0,1-1.4-.08,14.63,14.63,0,0,0-6-1.32,9,9,0,0,0-3.53.66c-1.7,1.65-2.55,4-2.55,7.16,0,.88.11,2.41.33,4.61a36.68,36.68,0,0,1,.16,4.44,10.16,10.16,0,0,1,.08,1.32c0,.49,0,1.28-.12,2.38s-.12,1.92-.12,2.47q0,3.38,2.22,4.44c-.39,0,.41-.11,2.38-.16a1.9,1.9,0,0,1,1.89,1q.5,2.72-3.12,2.72a23.66,23.66,0,0,0-4.69-.41c-.82,0-2,.07-3.5.2s-2.64.21-3.41.21a20.66,20.66,0,0,1-2.72-.17,1.32,1.32,0,0,1-1.15-1,2.36,2.36,0,0,1,.17-1.73c1-.39,2.11-.8,3.2-1.24a2.3,2.3,0,0,0,1.4-2.73,22.3,22.3,0,0,1-.24-3.38c0-1.16.09-2.91.28-5.25s.29-4.06.29-5.16a19.28,19.28,0,0,0-1.89-8.84c-1.37-.94-2.11-1.43-2.22-1.49a2.89,2.89,0,0,1-1.15-2.23,6.12,6.12,0,0,1,.08-.91,11.19,11.19,0,0,1,4.3-3,21.58,21.58,0,0,0,4.87-2.48,1.3,1.3,0,0,1,.57-.17c1.19,0,1.89.8,2.11,2.39v3c0,1.15.41,1.76,1.24,1.81A16.35,16.35,0,0,1,338.55,82c.66,0,1.33,0,2,.08a5.56,5.56,0,0,1,2.81,4.69A3.64,3.64,0,0,1,342.77,88.74Z"/></svg>