<?xml version="1.0" standalone="no"?>
<!DOCTYPE svg PUBLIC "-//W3C//DTD SVG 20010904//EN"
 "http://www.w3.org/TR/2001/REC-SVG-20010904/DTD/svg10.dtd">
<svg version="1.0" xmlns="http://www.w3.org/2000/svg"
 width="700.000000pt" height="700.000000pt" viewBox="0 0 700.000000 700.000000"
 preserveAspectRatio="xMidYMid meet">
<metadata>
Created by potrace 1.14, written by Peter Selinger 2001-2017
</metadata>
<g transform="translate(0.000000,700.000000) scale(0.100000,-0.100000)"
fill="#000000" stroke="none">
<path d="M0 3500 l0 -3500 3500 0 3500 0 0 3500 0 3500 -3500 0 -3500 0 0
-3500z m6960 0 l0 -3460 -3460 0 -3460 0 0 3460 0 3460 3460 0 3460 0 0 -3460z"/>
<path d="M4340 6100 c-22 -7 -139 -62 -529 -252 -111 -54 -134 -70 -206 -142
-56 -56 -93 -103 -118 -152 l-36 -70 23 -35 c43 -62 103 -97 187 -109 33 -5
75 -18 95 -30 31 -20 107 -119 144 -189 10 -19 21 -288 46 -1073 l33 -1049
-20 -97 c-17 -80 -22 -160 -29 -467 -5 -203 -12 -382 -16 -398 -10 -41 -57
-74 -138 -98 -136 -40 -218 -128 -195 -211 17 -62 73 -102 180 -129 85 -22
115 -24 304 -23 130 0 262 7 346 17 75 9 189 20 255 23 105 6 123 9 152 31 46
34 92 101 92 132 -1 55 -40 78 -189 110 -101 22 -157 45 -170 70 -5 9 -12 61
-15 116 -4 55 -14 147 -23 205 -9 58 -17 164 -17 235 -1 122 1 133 26 180 44
84 141 165 196 165 11 0 51 -16 91 -36 93 -46 218 -165 302 -285 131 -188 239
-327 329 -422 59 -64 90 -104 86 -114 -3 -8 -6 -19 -6 -25 0 -5 -36 -47 -80
-93 -46 -48 -80 -92 -80 -104 0 -53 58 -136 105 -150 43 -13 387 -26 695 -26
271 0 346 8 487 50 45 13 53 20 67 55 25 64 21 124 -12 161 -24 26 -41 33
-126 50 -120 24 -192 53 -283 111 -122 80 -296 259 -454 468 -93 124 -189 230
-280 310 -90 79 -269 297 -299 362 -20 44 -26 113 -11 136 4 7 50 32 102 55
130 59 271 144 387 233 170 131 304 224 422 294 101 59 123 68 182 74 86 8
109 17 256 94 l122 64 0 70 c0 81 -18 120 -65 142 -44 20 -713 -3 -798 -28
-49 -15 -70 -16 -145 -7 -140 17 -191 14 -249 -14 -30 -15 -61 -41 -77 -64
-27 -39 -54 -137 -44 -162 3 -8 56 -29 117 -48 61 -19 118 -42 127 -52 15 -17
12 -23 -44 -96 -222 -292 -445 -477 -707 -589 -81 -34 -99 -47 -175 -125 -85
-87 -127 -115 -160 -104 -27 9 -35 192 -34 840 0 669 14 984 76 1693 24 274
19 372 -19 451 -33 67 -106 96 -183 71z"/>
<path d="M2412 4633 c-99 -62 -123 -83 -139 -122 -47 -111 69 -241 215 -241
63 0 106 -16 156 -60 41 -37 86 -116 86 -153 0 -35 -110 -368 -173 -527 -70
-175 -140 -331 -274 -615 l-109 -230 -35 -3 c-34 -3 -38 0 -98 85 -143 200
-219 353 -321 647 -74 214 -135 370 -224 567 -36 81 -66 158 -66 172 0 35 55
80 154 126 125 58 186 120 186 191 0 66 -48 118 -153 165 -80 35 -121 39 -207
22 -154 -32 -249 -40 -465 -38 -202 1 -448 -10 -587 -25 l-56 -6 -10 -66 c-21
-150 37 -216 261 -293 123 -43 209 -94 230 -136 54 -106 776 -2008 832 -2192
13 -42 156 -251 189 -276 72 -55 149 -70 206 -40 53 27 151 133 187 201 36 67
63 159 63 214 0 23 45 145 126 340 175 424 529 1313 600 1505 58 158 60 161
124 225 41 40 108 90 175 130 61 36 134 88 163 117 69 68 91 119 92 205 l0 67
-81 26 c-151 47 -227 54 -617 57 l-363 3 -67 -42z"/>
</g>
</svg>
