<svg id="Layer_1" data-name="Layer 1" xmlns="http://www.w3.org/2000/svg" width="49" height="49" viewBox="0 0 49 49"><defs><style>.cls-1{fill-rule:evenodd;}</style></defs><path id="Path_3" data-name="Path 3" class="cls-1" d="M28.14,6.17c6.53,0,7.35,0,9.8.27a12.54,12.54,0,0,1,4.62.82,9.56,9.56,0,0,1,4.63,4.63A12.54,12.54,0,0,1,48,16.51c0,2.45.27,3.27.27,9.8s0,7.35-.27,9.8a12.63,12.63,0,0,1-.82,4.63,9.56,9.56,0,0,1-4.63,4.63,12.54,12.54,0,0,1-4.62.82c-2.45,0-3.27.27-9.8.27s-7.35,0-9.8-.27a12.63,12.63,0,0,1-4.63-.82,9.56,9.56,0,0,1-4.63-4.63,12.63,12.63,0,0,1-.82-4.63c0-2.45-.27-3.26-.27-9.8s0-7.35.27-9.8a12.54,12.54,0,0,1,.82-4.62A10,10,0,0,1,11,9.16a4.54,4.54,0,0,1,2.72-1.9,12.63,12.63,0,0,1,4.63-.82c2.45-.27,3.26-.27,9.8-.27m0-4.36c-6.54,0-7.63,0-10.08.28a16.83,16.83,0,0,0-6,1.08A10.68,10.68,0,0,0,7.72,5.9,10.6,10.6,0,0,0,5,10.25a12.37,12.37,0,0,0-1.09,6c-.27,2.45-.27,3.54-.27,10.07s0,7.63.27,10.08a16.53,16.53,0,0,0,1.09,6,10.63,10.63,0,0,0,2.72,4.36,10.66,10.66,0,0,0,4.35,2.72,16.63,16.63,0,0,0,6,1.09c2.45.27,3.54.27,10.08.27s7.62,0,10.07-.27a16.63,16.63,0,0,0,6-1.09,11.38,11.38,0,0,0,7.07-7.08,16.53,16.53,0,0,0,1.09-6c0-2.73.28-3.54.28-10.08s0-7.62-.28-10.07a16.63,16.63,0,0,0-1.09-6A10.49,10.49,0,0,0,48.55,5.9,10.68,10.68,0,0,0,44.2,3.17a16.83,16.83,0,0,0-6-1.08c-2.45-.28-3.54-.28-10.07-.28m0,12A12.33,12.33,0,0,0,15.61,25.91v.4A12.53,12.53,0,1,0,28.14,13.79m0,20.69A8,8,0,0,1,20,26.61v-.3a8,8,0,0,1,7.87-8.16h.3A8,8,0,0,1,36.3,26v.29a8,8,0,0,1-7.87,8.17h-.29M41.2,10.25a3,3,0,1,0,3,3h0a3,3,0,0,0-3-3" transform="translate(-3.64 -1.81)"/></svg>